<svg width="24" height="24" viewBox="0 0 24 24" fill="none" xmlns="http://www.w3.org/2000/svg">
<g clip-path="url(#clip0_73_108)">
<path d="M12 24C8.8174 24 5.76516 22.7357 3.51472 20.4853C1.26428 18.2348 0 15.1826 0 12C0 8.8174 1.26428 5.76516 3.51472 3.51472C5.76516 1.26428 8.8174 0 12 0C14.768 0.00248595 17.4501 0.961529 19.5921 2.71473C21.7341 4.46793 23.2043 6.90753 23.7539 9.62043C24.3034 12.3333 23.8985 15.1528 22.6077 17.6014C21.3168 20.05 19.2194 21.9772 16.6706 23.0567C15.1929 23.6818 13.6044 24.0026 12 24Z" fill="#444444"/>
<path d="M11.8916 3.76709V10.4122L7.09204 11.906L11.8916 3.76709Z" fill="#0EEBAA"/>
<path d="M11.8916 3.76709V10.4122L16.6911 11.906L11.8916 3.76709Z" fill="#08B985"/>
<path d="M11.8916 19.8607V15.237L7.09204 12.5867L11.8916 19.8607Z" fill="#BBF247"/>
<path d="M11.8916 19.8607V15.237L16.6911 12.5867L11.8916 19.8607Z" fill="#83BC0C"/>
<path d="M7.09204 11.906L11.8916 9.67493V14.2636L7.09204 11.906Z" fill="#0EEBAA"/>
<path d="M16.6911 11.906L11.8916 9.67493V14.2636L16.6911 11.906Z" fill="#08B985"/>
</g>
<defs>
<clipPath id="clip0_73_108">
<rect width="24" height="24" fill="white"/>
</clipPath>
</defs>
</svg>
