<svg width="16" height="16" viewBox="0 0 16 16" fill="none" xmlns="http://www.w3.org/2000/svg">
<g clip-path="url(#clip0_2_28)">
<path d="M7.24984 0.50045V8.4131C7.24973 8.42498 7.25204 8.43676 7.25663 8.44771C7.26123 8.45867 7.26801 8.46857 7.27656 8.47682C7.28487 8.48563 7.29491 8.49264 7.30604 8.49742C7.31718 8.50219 7.32918 8.50462 7.3413 8.50456H15.4996C15.4996 12.7425 11.9409 16.0062 7.68966 16.0062C3.43841 16.0062 0 12.6798 0 8.44188C0 4.20398 3.08285 0.50045 7.24984 0.50045ZM8.24971 0C12.4979 0 16 3.26166 16 7.50161H8.34117C8.32934 7.50188 8.31758 7.4998 8.30656 7.4955C8.29554 7.49119 8.28549 7.48474 8.27698 7.47652C8.26848 7.4683 8.26169 7.45847 8.257 7.44761C8.25232 7.43674 8.24984 7.42506 8.24971 7.41323V0Z" fill="#111111"/>
</g>
<defs>
<clipPath id="clip0_2_28">
<rect width="16" height="16" fill="white"/>
</clipPath>
</defs>
</svg>
