<svg width="20" height="16" viewBox="0 0 20 16" fill="none" xmlns="http://www.w3.org/2000/svg">
<rect width="16" height="16" rx="2" fill="black"/>
<mask id="path-2-outside-1_2_13" maskUnits="userSpaceOnUse" x="4.54199" y="3.52777" width="15" height="10" fill="black">
<rect fill="white" x="4.54199" y="3.52777" width="15" height="10"/>
<path fill-rule="evenodd" clip-rule="evenodd" d="M15.3082 4.53003C15.4734 4.54409 15.6263 4.62321 15.7331 4.74999L18.3881 7.79699C18.4885 7.91232 18.5433 8.06041 18.542 8.21331C18.5407 8.36622 18.4835 8.51337 18.3811 8.62699L15.7261 11.573C15.615 11.696 15.4597 11.7699 15.2941 11.7785C15.1286 11.7872 14.9664 11.7298 14.8431 11.619L14.7981 11.573C14.6944 11.4583 14.637 11.3091 14.637 11.1545C14.637 10.9998 14.6944 10.8507 14.7981 10.736L16.5578 8.78299H6.736C6.57024 8.78299 6.41127 8.71714 6.29406 8.59993C6.17685 8.48272 6.111 8.32375 6.111 8.15799C6.111 7.99223 6.17685 7.83326 6.29406 7.71605C6.41127 7.59884 6.57024 7.53299 6.736 7.53299H16.5016L14.7911 5.57099L14.7771 5.55599C14.6702 5.42921 14.6181 5.26517 14.6322 5.09995C14.6462 4.93473 14.7254 4.78187 14.8521 4.67499C14.9789 4.5681 15.1429 4.51596 15.3082 4.53003Z"/>
</mask>
<path fill-rule="evenodd" clip-rule="evenodd" d="M15.3082 4.53003C15.4734 4.54409 15.6263 4.62321 15.7331 4.74999L18.3881 7.79699C18.4885 7.91232 18.5433 8.06041 18.542 8.21331C18.5407 8.36622 18.4835 8.51337 18.3811 8.62699L15.7261 11.573C15.615 11.696 15.4597 11.7699 15.2941 11.7785C15.1286 11.7872 14.9664 11.7298 14.8431 11.619L14.7981 11.573C14.6944 11.4583 14.637 11.3091 14.637 11.1545C14.637 10.9998 14.6944 10.8507 14.7981 10.736L16.5578 8.78299H6.736C6.57024 8.78299 6.41127 8.71714 6.29406 8.59993C6.17685 8.48272 6.111 8.32375 6.111 8.15799C6.111 7.99223 6.17685 7.83326 6.29406 7.71605C6.41127 7.59884 6.57024 7.53299 6.736 7.53299H16.5016L14.7911 5.57099L14.7771 5.55599C14.6702 5.42921 14.6181 5.26517 14.6322 5.09995C14.6462 4.93473 14.7254 4.78187 14.8521 4.67499C14.9789 4.5681 15.1429 4.51596 15.3082 4.53003Z" fill="#111111"/>
<path d="M15.7331 4.74999L14.9792 5.40693L14.9738 5.40079L14.9686 5.39457L15.7331 4.74999ZM18.3881 7.79699L19.1421 7.14004L19.1423 7.14036L18.3881 7.79699ZM18.542 8.21331L17.542 8.20488L18.542 8.21331ZM18.3811 8.62699L19.1242 9.29624L19.124 9.29645L18.3811 8.62699ZM15.7261 11.573L16.469 12.2425L16.4682 12.2433L15.7261 11.573ZM15.2941 11.7785L15.2421 10.7799H15.2421L15.2941 11.7785ZM14.8431 11.619L14.1747 12.3628L14.1508 12.3413L14.1283 12.3183L14.8431 11.619ZM14.7981 11.573L14.0833 12.2723L14.0696 12.2582L14.0564 12.2437L14.7981 11.573ZM14.7981 10.736L15.541 11.4054L15.5399 11.4067L14.7981 10.736ZM16.5578 8.78299V7.78299H18.8049L17.3007 9.45237L16.5578 8.78299ZM6.29406 8.59993L7.00116 7.89282L7.00116 7.89282L6.29406 8.59993ZM6.29406 7.71605L7.00116 8.42315L7.00116 8.42316L6.29406 7.71605ZM16.5016 7.53299L17.2554 6.87585L18.7001 8.53299H16.5016V7.53299ZM14.7911 5.57099L15.5222 4.88867L15.5338 4.90107L15.5449 4.91384L14.7911 5.57099ZM14.7771 5.55599L14.0461 6.2383L14.0289 6.21986L14.0126 6.20057L14.7771 5.55599ZM14.8521 4.67499L15.4967 5.43952L15.4967 5.43952L14.8521 4.67499ZM14.9686 5.39457C15.0327 5.47056 15.1243 5.51799 15.2233 5.52642L15.393 3.53363C15.8225 3.57019 16.2198 3.77587 16.4977 4.10541L14.9686 5.39457ZM17.6342 8.45393L14.9792 5.40693L16.4871 4.09304L19.1421 7.14004L17.6342 8.45393ZM17.542 8.20488C17.5412 8.29623 17.5739 8.38471 17.6339 8.45361L19.1423 7.14036C19.4031 7.43992 19.5453 7.82458 19.5419 8.22175L17.542 8.20488ZM17.6381 7.95773C17.577 8.02561 17.5428 8.11353 17.542 8.20488L19.5419 8.22175C19.5386 8.61892 19.39 9.00112 19.1242 9.29624L17.6381 7.95773ZM14.9833 10.9035L17.6383 7.95752L19.124 9.29645L16.469 12.2425L14.9833 10.9035ZM15.2421 10.7799C15.1432 10.785 15.0504 10.8292 14.984 10.9027L16.4682 12.2433C16.1797 12.5628 15.7761 12.7548 15.3462 12.7772L15.2421 10.7799ZM15.5116 10.8752C15.4379 10.809 15.341 10.7747 15.2421 10.7799L15.3462 12.7772C14.9162 12.7996 14.4949 12.6505 14.1747 12.3628L15.5116 10.8752ZM15.513 10.8737L15.558 10.9197L14.1283 12.3183L14.0833 12.2723L15.513 10.8737ZM15.637 11.1545C15.637 11.0613 15.6024 10.9714 15.5399 10.9023L14.0564 12.2437C13.7864 11.9451 13.637 11.557 13.637 11.1545H15.637ZM15.5399 11.4067C15.6024 11.3375 15.637 11.2477 15.637 11.1545H13.637C13.637 10.752 13.7864 10.3639 14.0564 10.0653L15.5399 11.4067ZM17.3007 9.45237L15.541 11.4054L14.0552 10.0666L15.8149 8.1136L17.3007 9.45237ZM6.736 7.78299H16.5578V9.78299H6.736V7.78299ZM7.00116 7.89282C6.93084 7.8225 6.83545 7.78299 6.736 7.78299V9.78299C6.30502 9.78299 5.8917 9.61178 5.58695 9.30704L7.00116 7.89282ZM7.111 8.15799C7.111 8.05853 7.07149 7.96315 7.00116 7.89282L5.58695 9.30704C5.2822 9.00229 5.111 8.58897 5.111 8.15799H7.111ZM7.00116 8.42316C7.07149 8.35283 7.111 8.25745 7.111 8.15799H5.111C5.111 7.72701 5.2822 7.31369 5.58695 7.00894L7.00116 8.42316ZM6.736 8.53299C6.83545 8.53299 6.93084 8.49348 7.00116 8.42315L5.58695 7.00894C5.8917 6.70419 6.30502 6.53299 6.736 6.53299V8.53299ZM16.5016 8.53299H6.736V6.53299H16.5016V8.53299ZM15.5449 4.91384L17.2554 6.87585L15.7479 8.19013L14.0374 6.22813L15.5449 4.91384ZM15.5082 4.87367L15.5222 4.88867L14.0601 6.2533L14.0461 6.2383L15.5082 4.87367ZM15.6286 5.18478C15.637 5.08574 15.6057 4.9874 15.5417 4.91141L14.0126 6.20057C13.7348 5.87102 13.5992 5.44461 13.6358 5.01513L15.6286 5.18478ZM15.4967 5.43952C15.5727 5.37545 15.6201 5.28382 15.6286 5.18478L13.6358 5.01513C13.6723 4.58565 13.878 4.18828 14.2076 3.91045L15.4967 5.43952ZM15.2233 5.52642C15.3224 5.53485 15.4207 5.5036 15.4967 5.43952L14.2076 3.91045C14.5371 3.63261 14.9635 3.49707 15.393 3.53363L15.2233 5.52642Z" fill="#DE82FF" mask="url(#path-2-outside-1_2_13)"/>
</svg>
