<svg width="20" height="16" viewBox="0 0 20 16" fill="none" xmlns="http://www.w3.org/2000/svg">
<rect width="16" height="16" rx="2" fill="black"/>
<mask id="path-2-outside-1_2_191" maskUnits="userSpaceOnUse" x="5.11108" y="3.52777" width="15" height="10" fill="black">
<rect fill="white" x="5.11108" y="3.52777" width="15" height="10"/>
<path fill-rule="evenodd" clip-rule="evenodd" d="M9.34491 4.53003C9.17969 4.54409 9.02683 4.62321 8.91994 4.74999L6.26494 7.79699C6.16454 7.91232 6.10982 8.06041 6.11111 8.21331C6.1124 8.36622 6.16961 8.51337 6.27194 8.62699L8.92694 11.573C9.03805 11.696 9.1934 11.7699 9.35893 11.7785C9.52447 11.7872 9.68666 11.7298 9.80994 11.619L9.85494 11.573C9.95866 11.4583 10.0161 11.3091 10.0161 11.1545C10.0161 10.9998 9.95866 10.8507 9.85494 10.736L8.09524 8.78299H17.9171C18.0828 8.78299 18.2418 8.71714 18.359 8.59993C18.4762 8.48272 18.5421 8.32375 18.5421 8.15799C18.5421 7.99223 18.4762 7.83326 18.359 7.71605C18.2418 7.59884 18.0828 7.53299 17.9171 7.53299H8.15144L9.86194 5.57099L9.87594 5.55599C9.98283 5.42921 10.035 5.26517 10.0209 5.09995C10.0068 4.93473 9.92772 4.78187 9.80094 4.67499C9.67417 4.5681 9.51013 4.51596 9.34491 4.53003Z"/>
</mask>
<path fill-rule="evenodd" clip-rule="evenodd" d="M9.34491 4.53003C9.17969 4.54409 9.02683 4.62321 8.91994 4.74999L6.26494 7.79699C6.16454 7.91232 6.10982 8.06041 6.11111 8.21331C6.1124 8.36622 6.16961 8.51337 6.27194 8.62699L8.92694 11.573C9.03805 11.696 9.1934 11.7699 9.35893 11.7785C9.52447 11.7872 9.68666 11.7298 9.80994 11.619L9.85494 11.573C9.95866 11.4583 10.0161 11.3091 10.0161 11.1545C10.0161 10.9998 9.95866 10.8507 9.85494 10.736L8.09524 8.78299H17.9171C18.0828 8.78299 18.2418 8.71714 18.359 8.59993C18.4762 8.48272 18.5421 8.32375 18.5421 8.15799C18.5421 7.99223 18.4762 7.83326 18.359 7.71605C18.2418 7.59884 18.0828 7.53299 17.9171 7.53299H8.15144L9.86194 5.57099L9.87594 5.55599C9.98283 5.42921 10.035 5.26517 10.0209 5.09995C10.0068 4.93473 9.92772 4.78187 9.80094 4.67499C9.67417 4.5681 9.51013 4.51596 9.34491 4.53003Z" fill="#111111"/>
<path d="M8.91994 4.74999L9.67388 5.40693L9.67923 5.40079L9.68448 5.39457L8.91994 4.74999ZM6.26494 7.79699L5.51101 7.14004L5.51073 7.14036L6.26494 7.79699ZM6.11111 8.21331L7.11107 8.20488L6.11111 8.21331ZM6.27194 8.62699L5.52891 9.29624L5.5291 9.29645L6.27194 8.62699ZM8.92694 11.573L8.1841 12.2425L8.18484 12.2433L8.92694 11.573ZM9.35893 11.7785L9.41096 10.7799H9.41096L9.35893 11.7785ZM9.80994 11.619L10.4784 12.3628L10.5023 12.3413L10.5248 12.3183L9.80994 11.619ZM9.85494 11.573L10.5698 12.2723L10.5835 12.2582L10.5967 12.2437L9.85494 11.573ZM9.85494 10.736L9.11203 11.4054L9.11319 11.4067L9.85494 10.736ZM8.09524 8.78299V7.78299H5.84817L7.35233 9.45237L8.09524 8.78299ZM18.359 8.59993L17.6519 7.89282L17.6519 7.89282L18.359 8.59993ZM18.359 7.71605L17.6519 8.42315L17.6519 8.42316L18.359 7.71605ZM8.15144 7.53299L7.39768 6.87585L5.95295 8.53299H8.15144V7.53299ZM9.86194 5.57099L9.13089 4.88867L9.11932 4.90107L9.10818 4.91384L9.86194 5.57099ZM9.87594 5.55599L10.607 6.2383L10.6242 6.21986L10.6405 6.20057L9.87594 5.55599ZM9.80094 4.67499L9.15636 5.43952L9.15637 5.43952L9.80094 4.67499ZM9.68448 5.39457C9.62041 5.47056 9.52877 5.51799 9.42973 5.52642L9.26009 3.53363C8.83061 3.57019 8.43324 3.77587 8.15541 4.10541L9.68448 5.39457ZM7.01888 8.45393L9.67388 5.40693L8.166 4.09304L5.51101 7.14004L7.01888 8.45393ZM7.11107 8.20488C7.11184 8.29623 7.07915 8.38471 7.01916 8.45361L5.51073 7.14036C5.24993 7.43992 5.10779 7.82458 5.11114 8.22175L7.11107 8.20488ZM7.01498 7.95773C7.07612 8.02561 7.1103 8.11353 7.11107 8.20488L5.11114 8.22175C5.11449 8.61892 5.2631 9.00112 5.52891 9.29624L7.01498 7.95773ZM9.66979 10.9035L7.01479 7.95752L5.5291 9.29645L8.1841 12.2425L9.66979 10.9035ZM9.41096 10.7799C9.50985 10.785 9.60267 10.8292 9.66905 10.9027L8.18484 12.2433C8.47343 12.5628 8.87695 12.7548 9.30691 12.7772L9.41096 10.7799ZM9.14151 10.8752C9.21516 10.809 9.31206 10.7747 9.41096 10.7799L9.30691 12.7772C9.73687 12.7996 10.1582 12.6505 10.4784 12.3628L9.14151 10.8752ZM9.14011 10.8737L9.09511 10.9197L10.5248 12.3183L10.5698 12.2723L9.14011 10.8737ZM9.01609 11.1545C9.01609 11.0613 9.05069 10.9714 9.11319 10.9023L10.5967 12.2437C10.8666 11.9451 11.0161 11.557 11.0161 11.1545H9.01609ZM9.11319 11.4067C9.05069 11.3375 9.01609 11.2477 9.01609 11.1545H11.0161C11.0161 10.752 10.8666 10.3639 10.5967 10.0653L9.11319 11.4067ZM7.35233 9.45237L9.11203 11.4054L10.5979 10.0666L8.83816 8.1136L7.35233 9.45237ZM17.9171 7.78299H8.09524V9.78299H17.9171V7.78299ZM17.6519 7.89282C17.7222 7.8225 17.8176 7.78299 17.9171 7.78299V9.78299C18.3481 9.78299 18.7614 9.61178 19.0661 9.30704L17.6519 7.89282ZM17.5421 8.15799C17.5421 8.05853 17.5816 7.96315 17.6519 7.89282L19.0661 9.30704C19.3709 9.00229 19.5421 8.58897 19.5421 8.15799H17.5421ZM17.6519 8.42316C17.5816 8.35283 17.5421 8.25745 17.5421 8.15799H19.5421C19.5421 7.72701 19.3709 7.31369 19.0661 7.00894L17.6519 8.42316ZM17.9171 8.53299C17.8176 8.53299 17.7222 8.49348 17.6519 8.42315L19.0661 7.00894C18.7614 6.70419 18.3481 6.53299 17.9171 6.53299V8.53299ZM8.15144 8.53299H17.9171V6.53299H8.15144V8.53299ZM9.10818 4.91384L7.39768 6.87585L8.90521 8.19013L10.6157 6.22813L9.10818 4.91384ZM9.14489 4.87367L9.13089 4.88867L10.593 6.2533L10.607 6.2383L9.14489 4.87367ZM9.02451 5.18478C9.01608 5.08574 9.04734 4.9874 9.11141 4.91141L10.6405 6.20057C10.9183 5.87102 11.0539 5.44461 11.0173 5.01513L9.02451 5.18478ZM9.15637 5.43952C9.08037 5.37545 9.03294 5.28382 9.02451 5.18478L11.0173 5.01513C10.9807 4.58565 10.7751 4.18828 10.4455 3.91045L9.15637 5.43952ZM9.42973 5.52642C9.3307 5.53485 9.23236 5.5036 9.15636 5.43952L10.4455 3.91045C10.116 3.63261 9.68957 3.49707 9.26009 3.53363L9.42973 5.52642Z" fill="#0EEBAA" mask="url(#path-2-outside-1_2_191)"/>
</svg>
