<svg width="16" height="16" viewBox="0 0 16 16" fill="none" xmlns="http://www.w3.org/2000/svg">
<g clip-path="url(#clip0_2_5)">
<path d="M15.782 14.7089L12.9262 11.829C14.0336 10.315 14.5322 8.42171 14.3186 6.54074C14.105 4.65977 13.1957 2.93508 11.7787 1.72345C10.3618 0.511819 8.5456 -0.0940483 6.7059 0.0311825C4.8662 0.156413 3.14375 1.00316 1.89487 2.39626C0.645978 3.78936 -0.0337868 5.62222 -0.00380982 7.51569C0.0261672 9.40915 0.763592 11.2183 2.05592 12.569C3.34824 13.9197 5.09659 14.7084 6.93928 14.7722C8.78197 14.8359 10.578 14.1697 11.9559 12.9114L14.8157 15.7953C14.8816 15.8622 14.96 15.9147 15.0462 15.9497C15.1324 15.9847 15.2246 16.0014 15.3173 15.9989C15.4099 15.9963 15.5011 15.9746 15.5854 15.9349C15.6696 15.8952 15.7452 15.8385 15.8076 15.768C15.9357 15.6217 16.0044 15.4305 15.9996 15.2337C15.9949 15.037 15.917 14.8496 15.782 14.7099V14.7089ZM7.19082 13.4702C6.01958 13.4702 4.87463 13.1135 3.90078 12.4451C2.92692 11.7768 2.1679 10.8268 1.71968 9.7154C1.27146 8.60397 1.15419 7.38099 1.38269 6.20111C1.61119 5.02123 2.1752 3.93744 3.00339 3.08679C3.83159 2.23614 4.88677 1.65684 6.03551 1.42215C7.18426 1.18746 8.37496 1.30791 9.45705 1.76828C10.5391 2.22865 11.464 3.00825 12.1147 4.00851C12.7654 5.00876 13.1128 6.18474 13.1128 7.38774C13.1128 9.00091 12.4888 10.548 11.3783 11.6887C10.2677 12.8294 8.76142 13.4702 7.19082 13.4702Z" fill="#999999"/>
</g>
<defs>
<clipPath id="clip0_2_5">
<rect width="16" height="16" fill="white"/>
</clipPath>
</defs>
</svg>
